<svg xmlns="http://www.w3.org/2000/svg" width="944" height="830" viewBox="0 0 944 830" font-family="-apple-system, BlinkMacSystemFont, 'Segoe UI', Helvetica, Arial, sans-serif"><rect x="0" y="0" width="944" height="830" fill="#ffffff"/><text x="24" y="34" font-size="17" fill="#24292f" text-anchor="start" font-weight="600">Cost per operation — key type struct3x64</text><text x="24" y="54" font-size="12" fill="#6e7781" text-anchor="start" font-weight="400">go1.27.1 linux/amd64, 24 CPUs · measured 2026-09-12 · rtcompare, 95% intervals</text><rect x="24" y="70" width="11" height="11" fill="#1f6f8b"/><text x="41" y="79" font-size="12" fill="#24292f" text-anchor="start" font-weight="400">Set3</text><rect x="89.4" y="70" width="11" height="11" fill="#d97706"/><text x="106.4" y="79" font-size="12" fill="#24292f" text-anchor="start" font-weight="400">map[T]struct{}</text><rect x="24" y="96" width="292" height="196" fill="#f7f8fa" stroke="#e2e6ea" stroke-width="1"/><text x="34" y="116" font-size="12" fill="#24292f" text-anchor="start" font-weight="600">build-presized</text><text x="306" y="116" font-size="10" fill="#6e7781" text-anchor="end" font-weight="400">ns/element</text><line x1="76" y1="165.95641816300545" x2="304" y2="165.95641816300545" stroke="#e2e6ea" stroke-width="1"/><text x="69" y="169.95641816300545" font-size="10" fill="#6e7781" text-anchor="end" font-weight="400">100</text><line x1="76" y1="262" x2="76" y2="266" stroke="#8b949e" stroke-width="1"/><text x="76" y="279" font-size="10" fill="#6e7781" text-anchor="middle" font-weight="400">1k</text><line x1="159.35899957243822" y1="262" x2="159.35899957243822" y2="266" stroke="#8b949e" stroke-width="1"/><text x="159.35899957243822" y="279" font-size="10" fill="#6e7781" text-anchor="middle" font-weight="400">16k</text><line x1="242.0109998167593" y1="262" x2="242.0109998167593" y2="266" stroke="#8b949e" stroke-width="1"/><text x="242.0109998167593" y="279" font-size="10" fill="#6e7781" text-anchor="middle" font-weight="400">262k</text><line x1="304" y1="262" x2="304" y2="266" stroke="#8b949e" stroke-width="1"/><text x="304" y="279" font-size="10" fill="#6e7781" text-anchor="middle" font-weight="400">2.1M</text><line x1="76" y1="262" x2="304" y2="262" stroke="#8b949e" stroke-width="1"/><polyline points="76,246.86603172067046 159.35899957243822,237.52863990443007 242.0109998167593,224.0196576796517 304,199.95687938094898" fill="none" stroke="#1f6f8b" stroke-width="2" stroke-linejoin="round" stroke-linecap="round"/><circle cx="76" cy="246.86603172067046" r="3" fill="#1f6f8b"/><circle cx="159.35899957243822" cy="237.52863990443007" r="3" fill="#1f6f8b"/><circle cx="242.0109998167593" cy="224.0196576796517" r="3" fill="#1f6f8b"/><circle cx="304" cy="199.95687938094898" r="3" fill="#1f6f8b"/><polyline points="76,211.07602056904307 159.35899957243822,195.2344817151288 242.0109998167593,185.75362949308686 304,145.13396827932957" fill="none" stroke="#d97706" stroke-width="2" stroke-linejoin="round" stroke-linecap="round"/><circle cx="76" cy="211.07602056904307" r="3" fill="#d97706"/><circle cx="159.35899957243822" cy="195.2344817151288" r="3" fill="#d97706"/><circle cx="242.0109998167593" cy="185.75362949308686" r="3" fill="#d97706"/><circle cx="304" cy="145.13396827932957" r="3" fill="#d97706"/><rect x="326" y="96" width="292" height="196" fill="#f7f8fa" stroke="#e2e6ea" stroke-width="1"/><text x="336" y="116" font-size="12" fill="#24292f" text-anchor="start" font-weight="600">dedup-stream</text><text x="608" y="116" font-size="10" fill="#6e7781" text-anchor="end" font-weight="400">ns/event</text><line x1="378" y1="178.2446820547578" x2="606" y2="178.2446820547578" stroke="#e2e6ea" stroke-width="1"/><text x="371" y="182.2446820547578" font-size="10" fill="#6e7781" text-anchor="end" font-weight="400">100</text><line x1="378" y1="262" x2="378" y2="266" stroke="#8b949e" stroke-width="1"/><text x="378" y="279" font-size="10" fill="#6e7781" text-anchor="middle" font-weight="400">1k</text><line x1="461.3589995724382" y1="262" x2="461.3589995724382" y2="266" stroke="#8b949e" stroke-width="1"/><text x="461.3589995724382" y="279" font-size="10" fill="#6e7781" text-anchor="middle" font-weight="400">16k</text><line x1="544.0109998167593" y1="262" x2="544.0109998167593" y2="266" stroke="#8b949e" stroke-width="1"/><text x="544.0109998167593" y="279" font-size="10" fill="#6e7781" text-anchor="middle" font-weight="400">262k</text><line x1="606" y1="262" x2="606" y2="266" stroke="#8b949e" stroke-width="1"/><text x="606" y="279" font-size="10" fill="#6e7781" text-anchor="middle" font-weight="400">2.1M</text><line x1="378" y1="262" x2="606" y2="262" stroke="#8b949e" stroke-width="1"/><polyline points="378,245.2284380769413 461.3589995724382,231.30447108372957 544.0109998167593,221.6356319382096 606,177.71382525039706" fill="none" stroke="#1f6f8b" stroke-width="2" stroke-linejoin="round" stroke-linecap="round"/><circle cx="378" cy="245.2284380769413" r="3" fill="#1f6f8b"/><circle cx="461.3589995724382" cy="231.30447108372957" r="3" fill="#1f6f8b"/><circle cx="544.0109998167593" cy="221.6356319382096" r="3" fill="#1f6f8b"/><circle cx="606" cy="177.71382525039706" r="3" fill="#1f6f8b"/><polyline points="378,226.26294182447083 461.3589995724382,213.7536317983046 544.0109998167593,198.78224870946028 606,146.7715619230587" fill="none" stroke="#d97706" stroke-width="2" stroke-linejoin="round" stroke-linecap="round"/><circle cx="378" cy="226.26294182447083" r="3" fill="#d97706"/><circle cx="461.3589995724382" cy="213.7536317983046" r="3" fill="#d97706"/><circle cx="544.0109998167593" cy="198.78224870946028" r="3" fill="#d97706"/><circle cx="606" cy="146.7715619230587" r="3" fill="#d97706"/><rect x="628" y="96" width="292" height="196" fill="#f7f8fa" stroke="#e2e6ea" stroke-width="1"/><text x="638" y="116" font-size="12" fill="#24292f" text-anchor="start" font-weight="600">lookup-hit30</text><text x="910" y="116" font-size="10" fill="#6e7781" text-anchor="end" font-weight="400">ns/lookup</text><line x1="680" y1="218.72211430336648" x2="908" y2="218.72211430336648" stroke="#e2e6ea" stroke-width="1"/><text x="673" y="222.72211430336648" font-size="10" fill="#6e7781" text-anchor="end" font-weight="400">10</text><line x1="680" y1="262" x2="680" y2="266" stroke="#8b949e" stroke-width="1"/><text x="680" y="279" font-size="10" fill="#6e7781" text-anchor="middle" font-weight="400">1k</text><line x1="763.3589995724383" y1="262" x2="763.3589995724383" y2="266" stroke="#8b949e" stroke-width="1"/><text x="763.3589995724383" y="279" font-size="10" fill="#6e7781" text-anchor="middle" font-weight="400">16k</text><line x1="846.0109998167593" y1="262" x2="846.0109998167593" y2="266" stroke="#8b949e" stroke-width="1"/><text x="846.0109998167593" y="279" font-size="10" fill="#6e7781" text-anchor="middle" font-weight="400">262k</text><line x1="908" y1="262" x2="908" y2="266" stroke="#8b949e" stroke-width="1"/><text x="908" y="279" font-size="10" fill="#6e7781" text-anchor="middle" font-weight="400">2.1M</text><line x1="680" y1="262" x2="908" y2="262" stroke="#8b949e" stroke-width="1"/><polyline points="680,243.11121443646084 763.3589995724383,213.698677757617 846.0109998167593,183.69664570168538 908,184.25196794740475" fill="none" stroke="#1f6f8b" stroke-width="2" stroke-linejoin="round" stroke-linecap="round"/><circle cx="680" cy="243.11121443646084" r="3" fill="#1f6f8b"/><circle cx="763.3589995724383" cy="213.698677757617" r="3" fill="#1f6f8b"/><circle cx="846.0109998167593" cy="183.69664570168538" r="3" fill="#1f6f8b"/><circle cx="908" cy="184.25196794740475" r="3" fill="#1f6f8b"/><polyline points="680,229.81274430096468 763.3589995724383,194.3055858385395 846.0109998167593,148.88878556353916 908,162.98567995862967" fill="none" stroke="#d97706" stroke-width="2" stroke-linejoin="round" stroke-linecap="round"/><circle cx="680" cy="229.81274430096468" r="3" fill="#d97706"/><circle cx="763.3589995724383" cy="194.3055858385395" r="3" fill="#d97706"/><circle cx="846.0109998167593" cy="148.88878556353916" r="3" fill="#d97706"/><circle cx="908" cy="162.98567995862967" r="3" fill="#d97706"/><rect x="24" y="326" width="292" height="196" fill="#f7f8fa" stroke="#e2e6ea" stroke-width="1"/><text x="34" y="346" font-size="12" fill="#24292f" text-anchor="start" font-weight="600">lookup-hit95</text><text x="306" y="346" font-size="10" fill="#6e7781" text-anchor="end" font-weight="400">ns/lookup</text><line x1="76" y1="450.6336281575754" x2="304" y2="450.6336281575754" stroke="#e2e6ea" stroke-width="1"/><text x="69" y="454.6336281575754" font-size="10" fill="#6e7781" text-anchor="end" font-weight="400">10</text><line x1="76" y1="492" x2="76" y2="496" stroke="#8b949e" stroke-width="1"/><text x="76" y="509" font-size="10" fill="#6e7781" text-anchor="middle" font-weight="400">1k</text><line x1="159.35899957243822" y1="492" x2="159.35899957243822" y2="496" stroke="#8b949e" stroke-width="1"/><text x="159.35899957243822" y="509" font-size="10" fill="#6e7781" text-anchor="middle" font-weight="400">16k</text><line x1="242.0109998167593" y1="492" x2="242.0109998167593" y2="496" stroke="#8b949e" stroke-width="1"/><text x="242.0109998167593" y="509" font-size="10" fill="#6e7781" text-anchor="middle" font-weight="400">262k</text><line x1="304" y1="492" x2="304" y2="496" stroke="#8b949e" stroke-width="1"/><text x="304" y="509" font-size="10" fill="#6e7781" text-anchor="middle" font-weight="400">2.1M</text><line x1="76" y1="492" x2="304" y2="492" stroke="#8b949e" stroke-width="1"/><polyline points="76,473.44904532028465 159.35899957243822,457.8993850440732 242.0109998167593,428.10123052297024 304,390.6593504627649" fill="none" stroke="#1f6f8b" stroke-width="2" stroke-linejoin="round" stroke-linecap="round"/><circle cx="76" cy="473.44904532028465" r="3" fill="#1f6f8b"/><circle cx="159.35899957243822" cy="457.8993850440732" r="3" fill="#1f6f8b"/><circle cx="242.0109998167593" cy="428.10123052297024" r="3" fill="#1f6f8b"/><circle cx="304" cy="390.6593504627649" r="3" fill="#1f6f8b"/><polyline points="76,450.41463160148214 159.35899957243822,434.7136935692358 242.0109998167593,409.09072003555116 304,378.5509546797154" fill="none" stroke="#d97706" stroke-width="2" stroke-linejoin="round" stroke-linecap="round"/><circle cx="76" cy="450.41463160148214" r="3" fill="#d97706"/><circle cx="159.35899957243822" cy="434.7136935692358" r="3" fill="#d97706"/><circle cx="242.0109998167593" cy="409.09072003555116" r="3" fill="#d97706"/><circle cx="304" cy="378.5509546797154" r="3" fill="#d97706"/><rect x="326" y="326" width="292" height="196" fill="#f7f8fa" stroke="#e2e6ea" stroke-width="1"/><text x="336" y="346" font-size="12" fill="#24292f" text-anchor="start" font-weight="600">lookup-hit30-eqload</text><text x="608" y="346" font-size="10" fill="#6e7781" text-anchor="end" font-weight="400">ns/lookup</text><line x1="378" y1="443.3491153124338" x2="606" y2="443.3491153124338" stroke="#e2e6ea" stroke-width="1"/><text x="371" y="447.3491153124338" font-size="10" fill="#6e7781" text-anchor="end" font-weight="400">10</text><line x1="378" y1="492" x2="378" y2="496" stroke="#8b949e" stroke-width="1"/><text x="378" y="509" font-size="10" fill="#6e7781" text-anchor="middle" font-weight="400">1k</text><line x1="461.3589995724382" y1="492" x2="461.3589995724382" y2="496" stroke="#8b949e" stroke-width="1"/><text x="461.3589995724382" y="509" font-size="10" fill="#6e7781" text-anchor="middle" font-weight="400">16k</text><line x1="544.0109998167593" y1="492" x2="544.0109998167593" y2="496" stroke="#8b949e" stroke-width="1"/><text x="544.0109998167593" y="509" font-size="10" fill="#6e7781" text-anchor="middle" font-weight="400">262k</text><line x1="606" y1="492" x2="606" y2="496" stroke="#8b949e" stroke-width="1"/><text x="606" y="509" font-size="10" fill="#6e7781" text-anchor="middle" font-weight="400">2.1M</text><line x1="378" y1="492" x2="606" y2="492" stroke="#8b949e" stroke-width="1"/><polyline points="378,472.2217108699941 461.3589995724382,443.4726859222112 544.0109998167593,423.36963486030993 606,397.8432127730919" fill="none" stroke="#1f6f8b" stroke-width="2" stroke-linejoin="round" stroke-linecap="round"/><circle cx="378" cy="472.2217108699941" r="3" fill="#1f6f8b"/><circle cx="461.3589995724382" cy="443.4726859222112" r="3" fill="#1f6f8b"/><circle cx="544.0109998167593" cy="423.36963486030993" r="3" fill="#1f6f8b"/><circle cx="606" cy="397.8432127730919" r="3" fill="#1f6f8b"/><polyline points="378,456.4893096361137 461.3589995724382,417.6243207516562 544.0109998167593,396.08026113113687 606,379.7782891300059" fill="none" stroke="#d97706" stroke-width="2" stroke-linejoin="round" stroke-linecap="round"/><circle cx="378" cy="456.4893096361137" r="3" fill="#d97706"/><circle cx="461.3589995724382" cy="417.6243207516562" r="3" fill="#d97706"/><circle cx="544.0109998167593" cy="396.08026113113687" r="3" fill="#d97706"/><circle cx="606" cy="379.7782891300059" r="3" fill="#d97706"/><rect x="628" y="326" width="292" height="196" fill="#f7f8fa" stroke="#e2e6ea" stroke-width="1"/><text x="638" y="346" font-size="12" fill="#24292f" text-anchor="start" font-weight="600">lookup-hit95-eqload</text><text x="910" y="346" font-size="10" fill="#6e7781" text-anchor="end" font-weight="400">ns/lookup</text><line x1="680" y1="450.4242748786371" x2="908" y2="450.4242748786371" stroke="#e2e6ea" stroke-width="1"/><text x="673" y="454.4242748786371" font-size="10" fill="#6e7781" text-anchor="end" font-weight="400">10</text><line x1="680" y1="492" x2="680" y2="496" stroke="#8b949e" stroke-width="1"/><text x="680" y="509" font-size="10" fill="#6e7781" text-anchor="middle" font-weight="400">1k</text><line x1="763.3589995724383" y1="492" x2="763.3589995724383" y2="496" stroke="#8b949e" stroke-width="1"/><text x="763.3589995724383" y="509" font-size="10" fill="#6e7781" text-anchor="middle" font-weight="400">16k</text><line x1="846.0109998167593" y1="492" x2="846.0109998167593" y2="496" stroke="#8b949e" stroke-width="1"/><text x="846.0109998167593" y="509" font-size="10" fill="#6e7781" text-anchor="middle" font-weight="400">262k</text><line x1="908" y1="492" x2="908" y2="496" stroke="#8b949e" stroke-width="1"/><text x="908" y="509" font-size="10" fill="#6e7781" text-anchor="middle" font-weight="400">2.1M</text><line x1="680" y1="492" x2="908" y2="492" stroke="#8b949e" stroke-width="1"/><polyline points="680,474.24328513310263 763.3589995724383,457.8014895252999 846.0109998167593,422.11550927325146 908,386.93926626132884" fill="none" stroke="#1f6f8b" stroke-width="2" stroke-linejoin="round" stroke-linecap="round"/><circle cx="680" cy="474.24328513310263" r="3" fill="#1f6f8b"/><circle cx="763.3589995724383" cy="457.8014895252999" r="3" fill="#1f6f8b"/><circle cx="846.0109998167593" cy="422.11550927325146" r="3" fill="#1f6f8b"/><circle cx="908" cy="386.93926626132884" r="3" fill="#1f6f8b"/><polyline points="680,447.55625599064496 763.3589995724383,439.56859816139297 846.0109998167593,412.0309951769242 908,377.75671486689737" fill="none" stroke="#d97706" stroke-width="2" stroke-linejoin="round" stroke-linecap="round"/><circle cx="680" cy="447.55625599064496" r="3" fill="#d97706"/><circle cx="763.3589995724383" cy="439.56859816139297" r="3" fill="#d97706"/><circle cx="846.0109998167593" cy="412.0309951769242" r="3" fill="#d97706"/><circle cx="908" cy="377.75671486689737" r="3" fill="#d97706"/><rect x="24" y="556" width="292" height="196" fill="#f7f8fa" stroke="#e2e6ea" stroke-width="1"/><text x="34" y="576" font-size="12" fill="#24292f" text-anchor="start" font-weight="600">churn-fresh</text><text x="306" y="576" font-size="10" fill="#6e7781" text-anchor="end" font-weight="400">ns/(remove+insert)</text><line x1="76" y1="652.665311943739" x2="304" y2="652.665311943739" stroke="#e2e6ea" stroke-width="1"/><text x="69" y="656.665311943739" font-size="10" fill="#6e7781" text-anchor="end" font-weight="400">100</text><line x1="76" y1="722" x2="76" y2="726" stroke="#8b949e" stroke-width="1"/><text x="76" y="739" font-size="10" fill="#6e7781" text-anchor="middle" font-weight="400">1k</text><line x1="159.35899957243822" y1="722" x2="159.35899957243822" y2="726" stroke="#8b949e" stroke-width="1"/><text x="159.35899957243822" y="739" font-size="10" fill="#6e7781" text-anchor="middle" font-weight="400">16k</text><line x1="242.0109998167593" y1="722" x2="242.0109998167593" y2="726" stroke="#8b949e" stroke-width="1"/><text x="242.0109998167593" y="739" font-size="10" fill="#6e7781" text-anchor="middle" font-weight="400">262k</text><line x1="304" y1="722" x2="304" y2="726" stroke="#8b949e" stroke-width="1"/><text x="304" y="739" font-size="10" fill="#6e7781" text-anchor="middle" font-weight="400">2.1M</text><line x1="76" y1="722" x2="304" y2="722" stroke="#8b949e" stroke-width="1"/><polyline points="76,708.8164204777163 159.35899957243822,705.4682077776197 242.0109998167593,655.7438387275497 304,631.5105753276146" fill="none" stroke="#1f6f8b" stroke-width="2" stroke-linejoin="round" stroke-linecap="round"/><circle cx="76" cy="708.8164204777163" r="3" fill="#1f6f8b"/><circle cx="159.35899957243822" cy="705.4682077776197" r="3" fill="#1f6f8b"/><circle cx="242.0109998167593" cy="655.7438387275497" r="3" fill="#1f6f8b"/><circle cx="304" cy="631.5105753276146" r="3" fill="#1f6f8b"/><polyline points="76,681.3319651733858 159.35899957243822,668.7764646553634 242.0109998167593,615.724252191145 304,603.1835795222837" fill="none" stroke="#d97706" stroke-width="2" stroke-linejoin="round" stroke-linecap="round"/><circle cx="76" cy="681.3319651733858" r="3" fill="#d97706"/><circle cx="159.35899957243822" cy="668.7764646553634" r="3" fill="#d97706"/><circle cx="242.0109998167593" cy="615.724252191145" r="3" fill="#d97706"/><circle cx="304" cy="603.1835795222837" r="3" fill="#d97706"/><rect x="326" y="556" width="292" height="196" fill="#f7f8fa" stroke="#e2e6ea" stroke-width="1"/><text x="336" y="576" font-size="12" fill="#24292f" text-anchor="start" font-weight="600">iterate</text><text x="608" y="576" font-size="10" fill="#6e7781" text-anchor="end" font-weight="400">ns/element</text><line x1="378" y1="601.2687549640996" x2="606" y2="601.2687549640996" stroke="#e2e6ea" stroke-width="1"/><text x="371" y="605.2687549640996" font-size="10" fill="#6e7781" text-anchor="end" font-weight="400">10</text><line x1="378" y1="722" x2="378" y2="726" stroke="#8b949e" stroke-width="1"/><text x="378" y="739" font-size="10" fill="#6e7781" text-anchor="middle" font-weight="400">1k</text><line x1="461.3589995724382" y1="722" x2="461.3589995724382" y2="726" stroke="#8b949e" stroke-width="1"/><text x="461.3589995724382" y="739" font-size="10" fill="#6e7781" text-anchor="middle" font-weight="400">16k</text><line x1="544.0109998167593" y1="722" x2="544.0109998167593" y2="726" stroke="#8b949e" stroke-width="1"/><text x="544.0109998167593" y="739" font-size="10" fill="#6e7781" text-anchor="middle" font-weight="400">262k</text><line x1="606" y1="722" x2="606" y2="726" stroke="#8b949e" stroke-width="1"/><text x="606" y="739" font-size="10" fill="#6e7781" text-anchor="middle" font-weight="400">2.1M</text><line x1="378" y1="722" x2="606" y2="722" stroke="#8b949e" stroke-width="1"/><polyline points="378,702.8262031354614 461.3589995724382,698.7460727054896 544.0109998167593,672.8378217717279 606,665.8281968432955" fill="none" stroke="#1f6f8b" stroke-width="2" stroke-linejoin="round" stroke-linecap="round"/><circle cx="378" cy="702.8262031354614" r="3" fill="#1f6f8b"/><circle cx="461.3589995724382" cy="698.7460727054896" r="3" fill="#1f6f8b"/><circle cx="544.0109998167593" cy="672.8378217717279" r="3" fill="#1f6f8b"/><circle cx="606" cy="665.8281968432955" r="3" fill="#1f6f8b"/><polyline points="378,640.7129164057764 461.3589995724382,628.1494506036076 544.0109998167593,619.615353370989 606,609.1737968645386" fill="none" stroke="#d97706" stroke-width="2" stroke-linejoin="round" stroke-linecap="round"/><circle cx="378" cy="640.7129164057764" r="3" fill="#d97706"/><circle cx="461.3589995724382" cy="628.1494506036076" r="3" fill="#d97706"/><circle cx="544.0109998167593" cy="619.615353370989" r="3" fill="#d97706"/><circle cx="606" cy="609.1737968645386" r="3" fill="#d97706"/><text x="24" y="804" font-size="11" fill="#6e7781" text-anchor="start" font-weight="400">Both axes logarithmic. Each point is the median of a full rtcompare run at that size; see runtime.csv for the interval around it.</text></svg>
