<svg xmlns="http://www.w3.org/2000/svg" width="944" height="1060" viewBox="0 0 944 1060" font-family="-apple-system, BlinkMacSystemFont, 'Segoe UI', Helvetica, Arial, sans-serif"><rect x="0" y="0" width="944" height="1060" fill="#ffffff"/><text x="24" y="34" font-size="17" fill="#24292f" text-anchor="start" font-weight="600">Cost per operation — key type uint64</text><text x="24" y="54" font-size="12" fill="#6e7781" text-anchor="start" font-weight="400">go1.27.1 linux/amd64, 24 CPUs · measured 2026-09-11 · rtcompare, 95% intervals</text><rect x="24" y="70" width="11" height="11" fill="#1f6f8b"/><text x="41" y="79" font-size="12" fill="#24292f" text-anchor="start" font-weight="400">Set3</text><rect x="89.4" y="70" width="11" height="11" fill="#d97706"/><text x="106.4" y="79" font-size="12" fill="#24292f" text-anchor="start" font-weight="400">map[T]struct{}</text><rect x="24" y="96" width="292" height="196" fill="#f7f8fa" stroke="#e2e6ea" stroke-width="1"/><text x="34" y="116" font-size="12" fill="#24292f" text-anchor="start" font-weight="600">build-presized</text><text x="306" y="116" font-size="10" fill="#6e7781" text-anchor="end" font-weight="400">ns/element</text><line x1="76" y1="241.40276712653008" x2="304" y2="241.40276712653008" stroke="#e2e6ea" stroke-width="1"/><text x="69" y="245.40276712653008" font-size="10" fill="#6e7781" text-anchor="end" font-weight="400">10</text><line x1="76" y1="262" x2="76" y2="266" stroke="#8b949e" stroke-width="1"/><text x="76" y="279" font-size="10" fill="#6e7781" text-anchor="middle" font-weight="400">1k</text><line x1="159.35899957243822" y1="262" x2="159.35899957243822" y2="266" stroke="#8b949e" stroke-width="1"/><text x="159.35899957243822" y="279" font-size="10" fill="#6e7781" text-anchor="middle" font-weight="400">16k</text><line x1="242.0109998167593" y1="262" x2="242.0109998167593" y2="266" stroke="#8b949e" stroke-width="1"/><text x="242.0109998167593" y="279" font-size="10" fill="#6e7781" text-anchor="middle" font-weight="400">262k</text><line x1="304" y1="262" x2="304" y2="266" stroke="#8b949e" stroke-width="1"/><text x="304" y="279" font-size="10" fill="#6e7781" text-anchor="middle" font-weight="400">2.1M</text><line x1="76" y1="262" x2="304" y2="262" stroke="#8b949e" stroke-width="1"/><polyline points="76,243.9093263257857 159.35899957243822,241.13032865390423 242.0109998167593,228.78987690734863 304,210.770811123347" fill="none" stroke="#1f6f8b" stroke-width="2" stroke-linejoin="round" stroke-linecap="round"/><circle cx="76" cy="243.9093263257857" r="3" fill="#1f6f8b"/><circle cx="159.35899957243822" cy="241.13032865390423" r="3" fill="#1f6f8b"/><circle cx="242.0109998167593" cy="228.78987690734863" r="3" fill="#1f6f8b"/><circle cx="304" cy="210.770811123347" r="3" fill="#1f6f8b"/><polyline points="76,218.46875586868964 159.35899957243822,210.86304488426788 242.0109998167593,194.82835950822187 304,148.09067367421432" fill="none" stroke="#d97706" stroke-width="2" stroke-linejoin="round" stroke-linecap="round"/><circle cx="76" cy="218.46875586868964" r="3" fill="#d97706"/><circle cx="159.35899957243822" cy="210.86304488426788" r="3" fill="#d97706"/><circle cx="242.0109998167593" cy="194.82835950822187" r="3" fill="#d97706"/><circle cx="304" cy="148.09067367421432" r="3" fill="#d97706"/><rect x="326" y="96" width="292" height="196" fill="#f7f8fa" stroke="#e2e6ea" stroke-width="1"/><text x="336" y="116" font-size="12" fill="#24292f" text-anchor="start" font-weight="600">build-growing</text><text x="608" y="116" font-size="10" fill="#6e7781" text-anchor="end" font-weight="400">ns/element</text><line x1="378" y1="140.50314580367814" x2="606" y2="140.50314580367814" stroke="#e2e6ea" stroke-width="1"/><text x="371" y="144.50314580367814" font-size="10" fill="#6e7781" text-anchor="end" font-weight="400">100</text><line x1="378" y1="262" x2="378" y2="266" stroke="#8b949e" stroke-width="1"/><text x="378" y="279" font-size="10" fill="#6e7781" text-anchor="middle" font-weight="400">1k</text><line x1="461.3589995724382" y1="262" x2="461.3589995724382" y2="266" stroke="#8b949e" stroke-width="1"/><text x="461.3589995724382" y="279" font-size="10" fill="#6e7781" text-anchor="middle" font-weight="400">16k</text><line x1="544.0109998167593" y1="262" x2="544.0109998167593" y2="266" stroke="#8b949e" stroke-width="1"/><text x="544.0109998167593" y="279" font-size="10" fill="#6e7781" text-anchor="middle" font-weight="400">262k</text><line x1="606" y1="262" x2="606" y2="266" stroke="#8b949e" stroke-width="1"/><text x="606" y="279" font-size="10" fill="#6e7781" text-anchor="middle" font-weight="400">2.1M</text><line x1="378" y1="262" x2="606" y2="262" stroke="#8b949e" stroke-width="1"/><polyline points="378,238.50713358892693 461.3589995724382,227.6144558331398 544.0109998167593,208.45636362240074 606,182.13456092139256" fill="none" stroke="#1f6f8b" stroke-width="2" stroke-linejoin="round" stroke-linecap="round"/><circle cx="378" cy="238.50713358892693" r="3" fill="#1f6f8b"/><circle cx="461.3589995724382" cy="227.6144558331398" r="3" fill="#1f6f8b"/><circle cx="544.0109998167593" cy="208.45636362240074" r="3" fill="#1f6f8b"/><circle cx="606" cy="182.13456092139256" r="3" fill="#1f6f8b"/><polyline points="378,192.29760389404294 461.3589995724382,187.57296593260503 544.0109998167593,178.02876129800657 606,153.49286641107307" fill="none" stroke="#d97706" stroke-width="2" stroke-linejoin="round" stroke-linecap="round"/><circle cx="378" cy="192.29760389404294" r="3" fill="#d97706"/><circle cx="461.3589995724382" cy="187.57296593260503" r="3" fill="#d97706"/><circle cx="544.0109998167593" cy="178.02876129800657" r="3" fill="#d97706"/><circle cx="606" cy="153.49286641107307" r="3" fill="#d97706"/><rect x="628" y="96" width="292" height="196" fill="#f7f8fa" stroke="#e2e6ea" stroke-width="1"/><text x="638" y="116" font-size="12" fill="#24292f" text-anchor="start" font-weight="600">dedup-stream</text><text x="910" y="116" font-size="10" fill="#6e7781" text-anchor="end" font-weight="400">ns/event</text><line x1="680" y1="254.94283684209972" x2="908" y2="254.94283684209972" stroke="#e2e6ea" stroke-width="1"/><text x="673" y="258.9428368420997" font-size="10" fill="#6e7781" text-anchor="end" font-weight="400">10</text><line x1="680" y1="262" x2="680" y2="266" stroke="#8b949e" stroke-width="1"/><text x="680" y="279" font-size="10" fill="#6e7781" text-anchor="middle" font-weight="400">1k</text><line x1="763.3589995724383" y1="262" x2="763.3589995724383" y2="266" stroke="#8b949e" stroke-width="1"/><text x="763.3589995724383" y="279" font-size="10" fill="#6e7781" text-anchor="middle" font-weight="400">16k</text><line x1="846.0109998167593" y1="262" x2="846.0109998167593" y2="266" stroke="#8b949e" stroke-width="1"/><text x="846.0109998167593" y="279" font-size="10" fill="#6e7781" text-anchor="middle" font-weight="400">262k</text><line x1="908" y1="262" x2="908" y2="266" stroke="#8b949e" stroke-width="1"/><text x="908" y="279" font-size="10" fill="#6e7781" text-anchor="middle" font-weight="400">2.1M</text><line x1="680" y1="262" x2="908" y2="262" stroke="#8b949e" stroke-width="1"/><polyline points="680,237.25703149669127 763.3589995724383,216.030548758878 846.0109998167593,207.89894318853123 908,187.34972324659765" fill="none" stroke="#1f6f8b" stroke-width="2" stroke-linejoin="round" stroke-linecap="round"/><circle cx="680" cy="237.25703149669127" r="3" fill="#1f6f8b"/><circle cx="763.3589995724383" cy="216.030548758878" r="3" fill="#1f6f8b"/><circle cx="846.0109998167593" cy="207.89894318853123" r="3" fill="#1f6f8b"/><circle cx="908" cy="187.34972324659765" r="3" fill="#1f6f8b"/><polyline points="680,205.45652465055036 763.3589995724383,194.64651824098092 846.0109998167593,190.15089481386423 908,154.74296850330876" fill="none" stroke="#d97706" stroke-width="2" stroke-linejoin="round" stroke-linecap="round"/><circle cx="680" cy="205.45652465055036" r="3" fill="#d97706"/><circle cx="763.3589995724383" cy="194.64651824098092" r="3" fill="#d97706"/><circle cx="846.0109998167593" cy="190.15089481386423" r="3" fill="#d97706"/><circle cx="908" cy="154.74296850330876" r="3" fill="#d97706"/><rect x="24" y="326" width="292" height="196" fill="#f7f8fa" stroke="#e2e6ea" stroke-width="1"/><text x="34" y="346" font-size="12" fill="#24292f" text-anchor="start" font-weight="600">lookup-hit30</text><text x="306" y="346" font-size="10" fill="#6e7781" text-anchor="end" font-weight="400">ns/lookup</text><line x1="76" y1="425.9462516849187" x2="304" y2="425.9462516849187" stroke="#e2e6ea" stroke-width="1"/><text x="69" y="429.9462516849187" font-size="10" fill="#6e7781" text-anchor="end" font-weight="400">10</text><line x1="76" y1="492" x2="76" y2="496" stroke="#8b949e" stroke-width="1"/><text x="76" y="509" font-size="10" fill="#6e7781" text-anchor="middle" font-weight="400">1k</text><line x1="159.35899957243822" y1="492" x2="159.35899957243822" y2="496" stroke="#8b949e" stroke-width="1"/><text x="159.35899957243822" y="509" font-size="10" fill="#6e7781" text-anchor="middle" font-weight="400">16k</text><line x1="242.0109998167593" y1="492" x2="242.0109998167593" y2="496" stroke="#8b949e" stroke-width="1"/><text x="242.0109998167593" y="509" font-size="10" fill="#6e7781" text-anchor="middle" font-weight="400">262k</text><line x1="304" y1="492" x2="304" y2="496" stroke="#8b949e" stroke-width="1"/><text x="304" y="509" font-size="10" fill="#6e7781" text-anchor="middle" font-weight="400">2.1M</text><line x1="76" y1="492" x2="304" y2="492" stroke="#8b949e" stroke-width="1"/><polyline points="76,467.8516816287417 159.35899957243822,408.88285574995757 242.0109998167593,400.54419515585073 304,382.5386196410145" fill="none" stroke="#1f6f8b" stroke-width="2" stroke-linejoin="round" stroke-linecap="round"/><circle cx="76" cy="467.8516816287417" r="3" fill="#1f6f8b"/><circle cx="159.35899957243822" cy="408.88285574995757" r="3" fill="#1f6f8b"/><circle cx="242.0109998167593" cy="400.54419515585073" r="3" fill="#1f6f8b"/><circle cx="304" cy="382.5386196410145" r="3" fill="#1f6f8b"/><polyline points="76,470.5207740639402 159.35899957243822,421.63073687355654 242.0109998167593,406.32359233973546 304,381.4792259360597" fill="none" stroke="#d97706" stroke-width="2" stroke-linejoin="round" stroke-linecap="round"/><circle cx="76" cy="470.5207740639402" r="3" fill="#d97706"/><circle cx="159.35899957243822" cy="421.63073687355654" r="3" fill="#d97706"/><circle cx="242.0109998167593" cy="406.32359233973546" r="3" fill="#d97706"/><circle cx="304" cy="381.4792259360597" r="3" fill="#d97706"/><rect x="326" y="326" width="292" height="196" fill="#f7f8fa" stroke="#e2e6ea" stroke-width="1"/><text x="336" y="346" font-size="12" fill="#24292f" text-anchor="start" font-weight="600">lookup-hit95</text><text x="608" y="346" font-size="10" fill="#6e7781" text-anchor="end" font-weight="400">ns/lookup</text><line x1="378" y1="420.8243641741106" x2="606" y2="420.8243641741106" stroke="#e2e6ea" stroke-width="1"/><text x="371" y="424.8243641741106" font-size="10" fill="#6e7781" text-anchor="end" font-weight="400">10</text><line x1="378" y1="492" x2="378" y2="496" stroke="#8b949e" stroke-width="1"/><text x="378" y="509" font-size="10" fill="#6e7781" text-anchor="middle" font-weight="400">1k</text><line x1="461.3589995724382" y1="492" x2="461.3589995724382" y2="496" stroke="#8b949e" stroke-width="1"/><text x="461.3589995724382" y="509" font-size="10" fill="#6e7781" text-anchor="middle" font-weight="400">16k</text><line x1="544.0109998167593" y1="492" x2="544.0109998167593" y2="496" stroke="#8b949e" stroke-width="1"/><text x="544.0109998167593" y="509" font-size="10" fill="#6e7781" text-anchor="middle" font-weight="400">262k</text><line x1="606" y1="492" x2="606" y2="496" stroke="#8b949e" stroke-width="1"/><text x="606" y="509" font-size="10" fill="#6e7781" text-anchor="middle" font-weight="400">2.1M</text><line x1="378" y1="492" x2="606" y2="492" stroke="#8b949e" stroke-width="1"/><polyline points="378,471.726544021563 461.3589995724382,447.4317804018903 544.0109998167593,427.07966394294783 606,387.24303213582544" fill="none" stroke="#1f6f8b" stroke-width="2" stroke-linejoin="round" stroke-linecap="round"/><circle cx="378" cy="471.726544021563" r="3" fill="#1f6f8b"/><circle cx="461.3589995724382" cy="447.4317804018903" r="3" fill="#1f6f8b"/><circle cx="544.0109998167593" cy="427.07966394294783" r="3" fill="#1f6f8b"/><circle cx="606" cy="387.24303213582544" r="3" fill="#1f6f8b"/><polyline points="378,460.26595309410004 461.3589995724382,443.13666694527086 544.0109998167593,423.21939934461057 606,380.273455978437" fill="none" stroke="#d97706" stroke-width="2" stroke-linejoin="round" stroke-linecap="round"/><circle cx="378" cy="460.26595309410004" r="3" fill="#d97706"/><circle cx="461.3589995724382" cy="443.13666694527086" r="3" fill="#d97706"/><circle cx="544.0109998167593" cy="423.21939934461057" r="3" fill="#d97706"/><circle cx="606" cy="380.273455978437" r="3" fill="#d97706"/><rect x="628" y="326" width="292" height="196" fill="#f7f8fa" stroke="#e2e6ea" stroke-width="1"/><text x="638" y="346" font-size="12" fill="#24292f" text-anchor="start" font-weight="600">lookup-hit30-eqload</text><text x="910" y="346" font-size="10" fill="#6e7781" text-anchor="end" font-weight="400">ns/lookup</text><line x1="680" y1="415.74189589542834" x2="908" y2="415.74189589542834" stroke="#e2e6ea" stroke-width="1"/><text x="673" y="419.74189589542834" font-size="10" fill="#6e7781" text-anchor="end" font-weight="400">10</text><line x1="680" y1="492" x2="680" y2="496" stroke="#8b949e" stroke-width="1"/><text x="680" y="509" font-size="10" fill="#6e7781" text-anchor="middle" font-weight="400">1k</text><line x1="763.3589995724383" y1="492" x2="763.3589995724383" y2="496" stroke="#8b949e" stroke-width="1"/><text x="763.3589995724383" y="509" font-size="10" fill="#6e7781" text-anchor="middle" font-weight="400">16k</text><line x1="846.0109998167593" y1="492" x2="846.0109998167593" y2="496" stroke="#8b949e" stroke-width="1"/><text x="846.0109998167593" y="509" font-size="10" fill="#6e7781" text-anchor="middle" font-weight="400">262k</text><line x1="908" y1="492" x2="908" y2="496" stroke="#8b949e" stroke-width="1"/><text x="908" y="509" font-size="10" fill="#6e7781" text-anchor="middle" font-weight="400">2.1M</text><line x1="680" y1="492" x2="908" y2="492" stroke="#8b949e" stroke-width="1"/><polyline points="680,472.09986767433503 763.3589995724383,435.6300824486209 846.0109998167593,423.66036189256266 908,402.7524915859286" fill="none" stroke="#1f6f8b" stroke-width="2" stroke-linejoin="round" stroke-linecap="round"/><circle cx="680" cy="472.09986767433503" r="3" fill="#1f6f8b"/><circle cx="763.3589995724383" cy="435.6300824486209" r="3" fill="#1f6f8b"/><circle cx="846.0109998167593" cy="423.66036189256266" r="3" fill="#1f6f8b"/><circle cx="908" cy="402.7524915859286" r="3" fill="#1f6f8b"/><polyline points="680,458.7143438919172 763.3589995724383,411.39641975007464 846.0109998167593,399.0268138766679 908,379.90013232566497" fill="none" stroke="#d97706" stroke-width="2" stroke-linejoin="round" stroke-linecap="round"/><circle cx="680" cy="458.7143438919172" r="3" fill="#d97706"/><circle cx="763.3589995724383" cy="411.39641975007464" r="3" fill="#d97706"/><circle cx="846.0109998167593" cy="399.0268138766679" r="3" fill="#d97706"/><circle cx="908" cy="379.90013232566497" r="3" fill="#d97706"/><rect x="24" y="556" width="292" height="196" fill="#f7f8fa" stroke="#e2e6ea" stroke-width="1"/><text x="34" y="576" font-size="12" fill="#24292f" text-anchor="start" font-weight="600">lookup-hit95-eqload</text><text x="306" y="576" font-size="10" fill="#6e7781" text-anchor="end" font-weight="400">ns/lookup</text><line x1="76" y1="646.3578371733604" x2="304" y2="646.3578371733604" stroke="#e2e6ea" stroke-width="1"/><text x="69" y="650.3578371733604" font-size="10" fill="#6e7781" text-anchor="end" font-weight="400">10</text><line x1="76" y1="722" x2="76" y2="726" stroke="#8b949e" stroke-width="1"/><text x="76" y="739" font-size="10" fill="#6e7781" text-anchor="middle" font-weight="400">1k</text><line x1="159.35899957243822" y1="722" x2="159.35899957243822" y2="726" stroke="#8b949e" stroke-width="1"/><text x="159.35899957243822" y="739" font-size="10" fill="#6e7781" text-anchor="middle" font-weight="400">16k</text><line x1="242.0109998167593" y1="722" x2="242.0109998167593" y2="726" stroke="#8b949e" stroke-width="1"/><text x="242.0109998167593" y="739" font-size="10" fill="#6e7781" text-anchor="middle" font-weight="400">262k</text><line x1="304" y1="722" x2="304" y2="726" stroke="#8b949e" stroke-width="1"/><text x="304" y="739" font-size="10" fill="#6e7781" text-anchor="middle" font-weight="400">2.1M</text><line x1="76" y1="722" x2="304" y2="722" stroke="#8b949e" stroke-width="1"/><polyline points="76,701.5911208460384 159.35899957243822,689.4545847298607 242.0109998167593,659.1227467145574 304,615.990065412381" fill="none" stroke="#1f6f8b" stroke-width="2" stroke-linejoin="round" stroke-linecap="round"/><circle cx="76" cy="701.5911208460384" r="3" fill="#1f6f8b"/><circle cx="159.35899957243822" cy="689.4545847298607" r="3" fill="#1f6f8b"/><circle cx="242.0109998167593" cy="659.1227467145574" r="3" fill="#1f6f8b"/><circle cx="304" cy="615.990065412381" r="3" fill="#1f6f8b"/><polyline points="76,687.2129464818591 159.35899957243822,668.2909339873434 242.0109998167593,651.1128655958896 304,610.4088791539616" fill="none" stroke="#d97706" stroke-width="2" stroke-linejoin="round" stroke-linecap="round"/><circle cx="76" cy="687.2129464818591" r="3" fill="#d97706"/><circle cx="159.35899957243822" cy="668.2909339873434" r="3" fill="#d97706"/><circle cx="242.0109998167593" cy="651.1128655958896" r="3" fill="#d97706"/><circle cx="304" cy="610.4088791539616" r="3" fill="#d97706"/><rect x="326" y="556" width="292" height="196" fill="#f7f8fa" stroke="#e2e6ea" stroke-width="1"/><text x="336" y="576" font-size="12" fill="#24292f" text-anchor="start" font-weight="600">sliding-window</text><text x="608" y="576" font-size="10" fill="#6e7781" text-anchor="end" font-weight="400">ns/(remove+insert)</text><line x1="378" y1="718.8670863759764" x2="606" y2="718.8670863759764" stroke="#e2e6ea" stroke-width="1"/><text x="371" y="722.8670863759764" font-size="10" fill="#6e7781" text-anchor="end" font-weight="400">10</text><line x1="378" y1="627.5852201101893" x2="606" y2="627.5852201101893" stroke="#e2e6ea" stroke-width="1"/><text x="371" y="631.5852201101893" font-size="10" fill="#6e7781" text-anchor="end" font-weight="400">100</text><line x1="378" y1="722" x2="378" y2="726" stroke="#8b949e" stroke-width="1"/><text x="378" y="739" font-size="10" fill="#6e7781" text-anchor="middle" font-weight="400">1k</text><line x1="461.3589995724382" y1="722" x2="461.3589995724382" y2="726" stroke="#8b949e" stroke-width="1"/><text x="461.3589995724382" y="739" font-size="10" fill="#6e7781" text-anchor="middle" font-weight="400">16k</text><line x1="544.0109998167593" y1="722" x2="544.0109998167593" y2="726" stroke="#8b949e" stroke-width="1"/><text x="544.0109998167593" y="739" font-size="10" fill="#6e7781" text-anchor="middle" font-weight="400">262k</text><line x1="606" y1="722" x2="606" y2="726" stroke="#8b949e" stroke-width="1"/><text x="606" y="739" font-size="10" fill="#6e7781" text-anchor="middle" font-weight="400">2.1M</text><line x1="378" y1="722" x2="606" y2="722" stroke="#8b949e" stroke-width="1"/><polyline points="378,708.6611601895369 461.3589995724382,681.6602941417583 544.0109998167593,671.8934794228433 606,629.0104151835911" fill="none" stroke="#1f6f8b" stroke-width="2" stroke-linejoin="round" stroke-linecap="round"/><circle cx="378" cy="708.6611601895369" r="3" fill="#1f6f8b"/><circle cx="461.3589995724382" cy="681.6602941417583" r="3" fill="#1f6f8b"/><circle cx="544.0109998167593" cy="671.8934794228433" r="3" fill="#1f6f8b"/><circle cx="606" cy="629.0104151835911" r="3" fill="#1f6f8b"/><polyline points="378,685.824287889246 461.3589995724382,665.6386529903955 544.0109998167593,654.5599783643238 606,603.3388398104631" fill="none" stroke="#d97706" stroke-width="2" stroke-linejoin="round" stroke-linecap="round"/><circle cx="378" cy="685.824287889246" r="3" fill="#d97706"/><circle cx="461.3589995724382" cy="665.6386529903955" r="3" fill="#d97706"/><circle cx="544.0109998167593" cy="654.5599783643238" r="3" fill="#d97706"/><circle cx="606" cy="603.3388398104631" r="3" fill="#d97706"/><rect x="628" y="556" width="292" height="196" fill="#f7f8fa" stroke="#e2e6ea" stroke-width="1"/><text x="638" y="576" font-size="12" fill="#24292f" text-anchor="start" font-weight="600">mixed-index</text><text x="910" y="576" font-size="10" fill="#6e7781" text-anchor="end" font-weight="400">ns/operation</text><line x1="680" y1="719.2962836687394" x2="908" y2="719.2962836687394" stroke="#e2e6ea" stroke-width="1"/><text x="673" y="723.2962836687394" font-size="10" fill="#6e7781" text-anchor="end" font-weight="400">10</text><line x1="680" y1="593.845954862233" x2="908" y2="593.845954862233" stroke="#e2e6ea" stroke-width="1"/><text x="673" y="597.845954862233" font-size="10" fill="#6e7781" text-anchor="end" font-weight="400">100</text><line x1="680" y1="722" x2="680" y2="726" stroke="#8b949e" stroke-width="1"/><text x="680" y="739" font-size="10" fill="#6e7781" text-anchor="middle" font-weight="400">1k</text><line x1="763.3589995724383" y1="722" x2="763.3589995724383" y2="726" stroke="#8b949e" stroke-width="1"/><text x="763.3589995724383" y="739" font-size="10" fill="#6e7781" text-anchor="middle" font-weight="400">16k</text><line x1="846.0109998167593" y1="722" x2="846.0109998167593" y2="726" stroke="#8b949e" stroke-width="1"/><text x="846.0109998167593" y="739" font-size="10" fill="#6e7781" text-anchor="middle" font-weight="400">262k</text><line x1="908" y1="722" x2="908" y2="726" stroke="#8b949e" stroke-width="1"/><text x="908" y="739" font-size="10" fill="#6e7781" text-anchor="middle" font-weight="400">2.1M</text><line x1="680" y1="722" x2="908" y2="722" stroke="#8b949e" stroke-width="1"/><polyline points="680,703.6681898763161 763.3589995724383,697.316470950982 846.0109998167593,682.145617316365 908,613.5330943879392" fill="none" stroke="#1f6f8b" stroke-width="2" stroke-linejoin="round" stroke-linecap="round"/><circle cx="680" cy="703.6681898763161" r="3" fill="#1f6f8b"/><circle cx="763.3589995724383" cy="697.316470950982" r="3" fill="#1f6f8b"/><circle cx="846.0109998167593" cy="682.145617316365" r="3" fill="#1f6f8b"/><circle cx="908" cy="613.5330943879392" r="3" fill="#1f6f8b"/><polyline points="680,696.7750558808104 763.3589995724383,688.0652778641403 846.0109998167593,666.65061992858 908,608.3318101236839" fill="none" stroke="#d97706" stroke-width="2" stroke-linejoin="round" stroke-linecap="round"/><circle cx="680" cy="696.7750558808104" r="3" fill="#d97706"/><circle cx="763.3589995724383" cy="688.0652778641403" r="3" fill="#d97706"/><circle cx="846.0109998167593" cy="666.65061992858" r="3" fill="#d97706"/><circle cx="908" cy="608.3318101236839" r="3" fill="#d97706"/><rect x="24" y="786" width="292" height="196" fill="#f7f8fa" stroke="#e2e6ea" stroke-width="1"/><text x="34" y="806" font-size="12" fill="#24292f" text-anchor="start" font-weight="600">graph-visited</text><text x="306" y="806" font-size="10" fill="#6e7781" text-anchor="end" font-weight="400">ns/edge</text><line x1="76" y1="916.1317607621074" x2="304" y2="916.1317607621074" stroke="#e2e6ea" stroke-width="1"/><text x="69" y="920.1317607621074" font-size="10" fill="#6e7781" text-anchor="end" font-weight="400">10</text><line x1="76" y1="952" x2="76" y2="956" stroke="#8b949e" stroke-width="1"/><text x="76" y="969" font-size="10" fill="#6e7781" text-anchor="middle" font-weight="400">1k</text><line x1="190.48549748808404" y1="952" x2="190.48549748808404" y2="956" stroke="#8b949e" stroke-width="1"/><text x="190.48549748808404" y="969" font-size="10" fill="#6e7781" text-anchor="middle" font-weight="400">16k</text><line x1="304" y1="952" x2="304" y2="956" stroke="#8b949e" stroke-width="1"/><text x="304" y="969" font-size="10" fill="#6e7781" text-anchor="middle" font-weight="400">262k</text><line x1="76" y1="952" x2="304" y2="952" stroke="#8b949e" stroke-width="1"/><polyline points="76,924.4596156056339 190.48549748808404,910.1978209746204 304,889.2835924281521" fill="none" stroke="#1f6f8b" stroke-width="2" stroke-linejoin="round" stroke-linecap="round"/><circle cx="76" cy="924.4596156056339" r="3" fill="#1f6f8b"/><circle cx="190.48549748808404" cy="910.1978209746204" r="3" fill="#1f6f8b"/><circle cx="304" cy="889.2835924281521" r="3" fill="#1f6f8b"/><polyline points="76,897.326333974047 190.48549748808404,885.1476208157903 304,847.5403843943661" fill="none" stroke="#d97706" stroke-width="2" stroke-linejoin="round" stroke-linecap="round"/><circle cx="76" cy="897.326333974047" r="3" fill="#d97706"/><circle cx="190.48549748808404" cy="885.1476208157903" r="3" fill="#d97706"/><circle cx="304" cy="847.5403843943661" r="3" fill="#d97706"/><rect x="326" y="786" width="292" height="196" fill="#f7f8fa" stroke="#e2e6ea" stroke-width="1"/><text x="336" y="806" font-size="12" fill="#24292f" text-anchor="start" font-weight="600">intersect</text><text x="608" y="806" font-size="10" fill="#6e7781" text-anchor="end" font-weight="400">ns/probe</text><line x1="378" y1="947.5643270691253" x2="606" y2="947.5643270691253" stroke="#e2e6ea" stroke-width="1"/><text x="371" y="951.5643270691253" font-size="10" fill="#6e7781" text-anchor="end" font-weight="400">10</text><line x1="378" y1="835.1779564213962" x2="606" y2="835.1779564213962" stroke="#e2e6ea" stroke-width="1"/><text x="371" y="839.1779564213962" font-size="10" fill="#6e7781" text-anchor="end" font-weight="400">100</text><line x1="378" y1="952" x2="378" y2="956" stroke="#8b949e" stroke-width="1"/><text x="378" y="969" font-size="10" fill="#6e7781" text-anchor="middle" font-weight="400">1k</text><line x1="461.3589995724382" y1="952" x2="461.3589995724382" y2="956" stroke="#8b949e" stroke-width="1"/><text x="461.3589995724382" y="969" font-size="10" fill="#6e7781" text-anchor="middle" font-weight="400">16k</text><line x1="544.0109998167593" y1="952" x2="544.0109998167593" y2="956" stroke="#8b949e" stroke-width="1"/><text x="544.0109998167593" y="969" font-size="10" fill="#6e7781" text-anchor="middle" font-weight="400">262k</text><line x1="606" y1="952" x2="606" y2="956" stroke="#8b949e" stroke-width="1"/><text x="606" y="969" font-size="10" fill="#6e7781" text-anchor="middle" font-weight="400">2.1M</text><line x1="378" y1="952" x2="606" y2="952" stroke="#8b949e" stroke-width="1"/><polyline points="378,935.577200420241 461.3589995724382,929.8292873751556 544.0109998167593,915.2608654623958 606,888.0269493410585" fill="none" stroke="#1f6f8b" stroke-width="2" stroke-linejoin="round" stroke-linecap="round"/><circle cx="378" cy="935.577200420241" r="3" fill="#1f6f8b"/><circle cx="461.3589995724382" cy="929.8292873751556" r="3" fill="#1f6f8b"/><circle cx="544.0109998167593" cy="915.2608654623958" r="3" fill="#1f6f8b"/><circle cx="606" cy="888.0269493410585" r="3" fill="#1f6f8b"/><polyline points="378,911.9400474610514 461.3589995724382,896.6747876754275 544.0109998167593,881.7154564943746 606,836.422799579759" fill="none" stroke="#d97706" stroke-width="2" stroke-linejoin="round" stroke-linecap="round"/><circle cx="378" cy="911.9400474610514" r="3" fill="#d97706"/><circle cx="461.3589995724382" cy="896.6747876754275" r="3" fill="#d97706"/><circle cx="544.0109998167593" cy="881.7154564943746" r="3" fill="#d97706"/><circle cx="606" cy="836.422799579759" r="3" fill="#d97706"/><rect x="628" y="786" width="292" height="196" fill="#f7f8fa" stroke="#e2e6ea" stroke-width="1"/><text x="638" y="806" font-size="12" fill="#24292f" text-anchor="start" font-weight="600">iterate</text><text x="910" y="806" font-size="10" fill="#6e7781" text-anchor="end" font-weight="400">ns/element</text><line x1="680" y1="837.2986045628018" x2="908" y2="837.2986045628018" stroke="#e2e6ea" stroke-width="1"/><text x="673" y="841.2986045628018" font-size="10" fill="#6e7781" text-anchor="end" font-weight="400">10</text><line x1="680" y1="952" x2="680" y2="956" stroke="#8b949e" stroke-width="1"/><text x="680" y="969" font-size="10" fill="#6e7781" text-anchor="middle" font-weight="400">1k</text><line x1="763.3589995724383" y1="952" x2="763.3589995724383" y2="956" stroke="#8b949e" stroke-width="1"/><text x="763.3589995724383" y="969" font-size="10" fill="#6e7781" text-anchor="middle" font-weight="400">16k</text><line x1="846.0109998167593" y1="952" x2="846.0109998167593" y2="956" stroke="#8b949e" stroke-width="1"/><text x="846.0109998167593" y="969" font-size="10" fill="#6e7781" text-anchor="middle" font-weight="400">262k</text><line x1="908" y1="952" x2="908" y2="956" stroke="#8b949e" stroke-width="1"/><text x="908" y="969" font-size="10" fill="#6e7781" text-anchor="middle" font-weight="400">2.1M</text><line x1="680" y1="952" x2="908" y2="952" stroke="#8b949e" stroke-width="1"/><polyline points="680,933.9765891503015 763.3589995724383,933.5678611231384 846.0109998167593,916.1745972075709 908,915.8579005778288" fill="none" stroke="#1f6f8b" stroke-width="2" stroke-linejoin="round" stroke-linecap="round"/><circle cx="680" cy="933.9765891503015" r="3" fill="#1f6f8b"/><circle cx="763.3589995724383" cy="933.5678611231384" r="3" fill="#1f6f8b"/><circle cx="846.0109998167593" cy="916.1745972075709" r="3" fill="#1f6f8b"/><circle cx="908" cy="915.8579005778288" r="3" fill="#1f6f8b"/><polyline points="680,872.720628712215 763.3589995724383,863.2569068871367 846.0109998167593,853.9132811773555 908,838.0234108496986" fill="none" stroke="#d97706" stroke-width="2" stroke-linejoin="round" stroke-linecap="round"/><circle cx="680" cy="872.720628712215" r="3" fill="#d97706"/><circle cx="763.3589995724383" cy="863.2569068871367" r="3" fill="#d97706"/><circle cx="846.0109998167593" cy="853.9132811773555" r="3" fill="#d97706"/><circle cx="908" cy="838.0234108496986" r="3" fill="#d97706"/><text x="24" y="1034" font-size="11" fill="#6e7781" text-anchor="start" font-weight="400">Both axes logarithmic. Each point is the median of a full rtcompare run at that size; see runtime.csv for the interval around it.</text></svg>
