<svg xmlns="http://www.w3.org/2000/svg" width="904" height="502" viewBox="0 0 904 502" font-family="-apple-system, BlinkMacSystemFont, 'Segoe UI', Helvetica, Arial, sans-serif"><rect x="0" y="0" width="904" height="502" fill="#ffffff"/><text x="24" y="34" font-size="17" fill="#24292f" text-anchor="start" font-weight="600">The price of speed — key type string</text><text x="24" y="54" font-size="12" fill="#6e7781" text-anchor="start" font-weight="400">go1.27.1 linux/amd64, 24 CPUs · measured 2026-09-12 · rtcompare, 95% intervals</text><rect x="24" y="74" width="11" height="11" fill="#1f6f8b"/><text x="41" y="83" font-size="12" fill="#24292f" text-anchor="start" font-weight="400">Set3, at a range of occupancies</text><rect x="267.6" y="74" width="11" height="11" fill="#d97706"/><text x="284.6" y="83" font-size="12" fill="#24292f" text-anchor="start" font-weight="400">map[T]struct{} (one fixed point)</text><rect x="517.8" y="74" width="11" height="11" fill="#dfe3e8"/><text x="534.8" y="83" font-size="12" fill="#24292f" text-anchor="start" font-weight="400">cheaper than the map on both axes</text><rect x="24" y="100" width="420" height="300" fill="#f7f8fa" stroke="#e2e6ea" stroke-width="1"/><text x="34" y="121" font-size="12" fill="#24292f" text-anchor="start" font-weight="600">n = 16k</text><text x="434" y="121" font-size="10" fill="#6e7781" text-anchor="end" font-weight="400">ns per lookup  ×  bytes per element</text><rect x="78" y="164.69565217391303" width="177.59053829702745" height="191.30434782608697" fill="#dfe3e8"/><line x1="78" y1="356" x2="426" y2="356" stroke="#e2e6ea" stroke-width="1"/><text x="71" y="360" font-size="10" fill="#6e7781" text-anchor="end" font-weight="400">0</text><line x1="78" y1="290.0402618241825" x2="426" y2="290.0402618241825" stroke="#e2e6ea" stroke-width="1"/><text x="71" y="294.0402618241825" font-size="10" fill="#6e7781" text-anchor="end" font-weight="400">5.0</text><line x1="78" y1="224.08052364836502" x2="426" y2="224.08052364836502" stroke="#e2e6ea" stroke-width="1"/><text x="71" y="228.08052364836502" font-size="10" fill="#6e7781" text-anchor="end" font-weight="400">10</text><line x1="78" y1="158.12078547254754" x2="426" y2="158.12078547254754" stroke="#e2e6ea" stroke-width="1"/><text x="71" y="162.12078547254754" font-size="10" fill="#6e7781" text-anchor="end" font-weight="400">15</text><line x1="78" y1="356" x2="78" y2="360" stroke="#8b949e" stroke-width="1"/><text x="78" y="373" font-size="10" fill="#6e7781" text-anchor="middle" font-weight="400">0</text><line x1="161.24920697953695" y1="356" x2="161.24920697953695" y2="360" stroke="#8b949e" stroke-width="1"/><text x="161.24920697953695" y="373" font-size="10" fill="#6e7781" text-anchor="middle" font-weight="400">25</text><line x1="244.49841395907393" y1="356" x2="244.49841395907393" y2="360" stroke="#8b949e" stroke-width="1"/><text x="244.49841395907393" y="373" font-size="10" fill="#6e7781" text-anchor="middle" font-weight="400">50</text><line x1="327.7476209386109" y1="356" x2="327.7476209386109" y2="360" stroke="#8b949e" stroke-width="1"/><text x="327.7476209386109" y="373" font-size="10" fill="#6e7781" text-anchor="middle" font-weight="400">75</text><line x1="410.99682791814786" y1="356" x2="410.99682791814786" y2="360" stroke="#8b949e" stroke-width="1"/><text x="410.99682791814786" y="373" font-size="10" fill="#6e7781" text-anchor="middle" font-weight="400">100</text><line x1="78" y1="356" x2="426" y2="356" stroke="#8b949e" stroke-width="1"/><text x="252" y="390" font-size="10" fill="#6e7781" text-anchor="middle" font-weight="400">bytes per element</text><polyline points="177.0832061470449,189.9978077381566 201.22547617111064,196.6135694771911 236.19014310251615,201.15291865845086 276.14976245269395,201.3164988091269 342.74912803632344,199.2915348471293 394.3636363636364,200.28093091976658" fill="none" stroke="#1f6f8b" stroke-width="2" stroke-linejoin="round" stroke-linecap="round"/><circle cx="177.0832061470449" cy="189.9978077381566" r="3.5" fill="#1f6f8b"/><text x="177.0832061470449" y="180.9978077381566" font-size="9" fill="#1f6f8b" text-anchor="middle" font-weight="600">0.57</text><circle cx="201.22547617111064" cy="196.6135694771911" r="3.5" fill="#1f6f8b"/><text x="201.22547617111064" y="187.6135694771911" font-size="9" fill="#1f6f8b" text-anchor="middle" font-weight="600">0.46</text><circle cx="236.19014310251615" cy="201.15291865845086" r="3.5" fill="#1f6f8b"/><text x="236.19014310251615" y="192.15291865845086" font-size="9" fill="#1f6f8b" text-anchor="middle" font-weight="600">0.36</text><circle cx="276.14976245269395" cy="201.3164988091269" r="3.5" fill="#1f6f8b"/><text x="276.14976245269395" y="192.3164988091269" font-size="9" fill="#1f6f8b" text-anchor="middle" font-weight="600">0.29</text><circle cx="342.74912803632344" cy="199.2915348471293" r="3.5" fill="#1f6f8b"/><text x="342.74912803632344" y="190.2915348471293" font-size="9" fill="#1f6f8b" text-anchor="middle" font-weight="600">0.21</text><circle cx="394.3636363636364" cy="200.28093091976658" r="3.5" fill="#1f6f8b"/><text x="394.3636363636364" y="191.28093091976658" font-size="9" fill="#1f6f8b" text-anchor="middle" font-weight="600">0.18</text><rect x="251.09053829702745" y="160.19565217391303" width="9" height="9" fill="#d97706"/><text x="246.59053829702745" y="155.69565217391303" font-size="10" fill="#d97706" text-anchor="end" font-weight="600">map</text><rect x="460" y="100" width="420" height="300" fill="#f7f8fa" stroke="#e2e6ea" stroke-width="1"/><text x="470" y="121" font-size="12" fill="#24292f" text-anchor="start" font-weight="600">n = 2.1M</text><text x="870" y="121" font-size="10" fill="#6e7781" text-anchor="end" font-weight="400">ns per lookup  ×  bytes per element</text><rect x="514" y="164.69565217391303" width="178.6259251024362" height="191.30434782608697" fill="#dfe3e8"/><line x1="514" y1="356" x2="862" y2="356" stroke="#e2e6ea" stroke-width="1"/><text x="507" y="360" font-size="10" fill="#6e7781" text-anchor="end" font-weight="400">0</text><line x1="514" y1="260.2182813124316" x2="862" y2="260.2182813124316" stroke="#e2e6ea" stroke-width="1"/><text x="507" y="264.2182813124316" font-size="10" fill="#6e7781" text-anchor="end" font-weight="400">20</text><line x1="514" y1="164.43656262486317" x2="862" y2="164.43656262486317" stroke="#e2e6ea" stroke-width="1"/><text x="507" y="168.43656262486317" font-size="10" fill="#6e7781" text-anchor="end" font-weight="400">40</text><line x1="514" y1="356" x2="514" y2="360" stroke="#8b949e" stroke-width="1"/><text x="514" y="373" font-size="10" fill="#6e7781" text-anchor="middle" font-weight="400">0</text><line x1="597.7392763193989" y1="356" x2="597.7392763193989" y2="360" stroke="#8b949e" stroke-width="1"/><text x="597.7392763193989" y="373" font-size="10" fill="#6e7781" text-anchor="middle" font-weight="400">25</text><line x1="681.4785526387979" y1="356" x2="681.4785526387979" y2="360" stroke="#8b949e" stroke-width="1"/><text x="681.4785526387979" y="373" font-size="10" fill="#6e7781" text-anchor="middle" font-weight="400">50</text><line x1="765.2178289581968" y1="356" x2="765.2178289581968" y2="360" stroke="#8b949e" stroke-width="1"/><text x="765.2178289581968" y="373" font-size="10" fill="#6e7781" text-anchor="middle" font-weight="400">75</text><line x1="848.9571052775957" y1="356" x2="848.9571052775957" y2="360" stroke="#8b949e" stroke-width="1"/><text x="848.9571052775957" y="373" font-size="10" fill="#6e7781" text-anchor="middle" font-weight="400">100</text><line x1="514" y1="356" x2="862" y2="356" stroke="#8b949e" stroke-width="1"/><text x="688" y="390" font-size="10" fill="#6e7781" text-anchor="middle" font-weight="400">bytes per element</text><polyline points="612.8793374779463,204.50109773468617 635.696615489456,202.42311334775937 672.1901921094501,200.80344448475256 711.7285288164176,188.79816386445273 777.6346888508372,170.34485794210582 830.3636363636364,184.31653724706143" fill="none" stroke="#1f6f8b" stroke-width="2" stroke-linejoin="round" stroke-linecap="round"/><circle cx="612.8793374779463" cy="204.50109773468617" r="3.5" fill="#1f6f8b"/><text x="612.8793374779463" y="195.50109773468617" font-size="9" fill="#1f6f8b" text-anchor="middle" font-weight="600">0.58</text><circle cx="635.696615489456" cy="202.42311334775937" r="3.5" fill="#1f6f8b"/><text x="635.696615489456" y="193.42311334775937" font-size="9" fill="#1f6f8b" text-anchor="middle" font-weight="600">0.47</text><circle cx="672.1901921094501" cy="200.80344448475256" r="3.5" fill="#1f6f8b"/><text x="672.1901921094501" y="191.80344448475256" font-size="9" fill="#1f6f8b" text-anchor="middle" font-weight="600">0.36</text><circle cx="711.7285288164176" cy="188.79816386445273" r="3.5" fill="#1f6f8b"/><text x="711.7285288164176" y="179.79816386445273" font-size="9" fill="#1f6f8b" text-anchor="middle" font-weight="600">0.29</text><circle cx="777.6346888508372" cy="170.34485794210582" r="3.5" fill="#1f6f8b"/><text x="777.6346888508372" y="161.34485794210582" font-size="9" fill="#1f6f8b" text-anchor="middle" font-weight="600">0.22</text><circle cx="830.3636363636364" cy="184.31653724706143" r="3.5" fill="#1f6f8b"/><text x="830.3636363636364" y="175.31653724706143" font-size="9" fill="#1f6f8b" text-anchor="middle" font-weight="600">0.18</text><rect x="688.1259251024362" y="160.19565217391303" width="9" height="9" fill="#d97706"/><text x="683.6259251024362" y="155.69565217391303" font-size="10" fill="#d97706" text-anchor="end" font-weight="600">map</text><text x="24" y="458" font-size="11" fill="#6e7781" text-anchor="start" font-weight="400">Set3's occupancy is set with RehashToCapacity; the native map has no such control. Lookups at a 30% hit rate.</text><text x="24" y="473" font-size="11" fill="#6e7781" text-anchor="start" font-weight="400">Memory is retained heap per element after a full collection. Both axes are costs, so lower and further left is better.</text></svg>
