<svg xmlns="http://www.w3.org/2000/svg" width="904" height="502" viewBox="0 0 904 502" font-family="-apple-system, BlinkMacSystemFont, 'Segoe UI', Helvetica, Arial, sans-serif"><rect x="0" y="0" width="904" height="502" fill="#ffffff"/><text x="24" y="34" font-size="17" fill="#24292f" text-anchor="start" font-weight="600">The price of speed — key type string</text><text x="24" y="54" font-size="12" fill="#6e7781" text-anchor="start" font-weight="400">go1.27.1 linux/amd64, 24 CPUs · measured 2026-09-12 · rtcompare, 95% intervals</text><rect x="24" y="74" width="11" height="11" fill="#1f6f8b"/><text x="41" y="83" font-size="12" fill="#24292f" text-anchor="start" font-weight="400">Set3, at a range of occupancies</text><rect x="267.6" y="74" width="11" height="11" fill="#d97706"/><text x="284.6" y="83" font-size="12" fill="#24292f" text-anchor="start" font-weight="400">map[T]struct{} (one fixed point)</text><rect x="517.8" y="74" width="11" height="11" fill="#dfe3e8"/><text x="534.8" y="83" font-size="12" fill="#24292f" text-anchor="start" font-weight="400">cheaper than the map on both axes</text><rect x="24" y="100" width="420" height="300" fill="#f7f8fa" stroke="#e2e6ea" stroke-width="1"/><text x="34" y="121" font-size="12" fill="#24292f" text-anchor="start" font-weight="600">n = 16k</text><text x="434" y="121" font-size="10" fill="#6e7781" text-anchor="end" font-weight="400">ns per lookup  ×  bytes per element</text><rect x="78" y="164.69565217391303" width="235.9553750214543" height="191.30434782608697" fill="#dfe3e8"/><line x1="78" y1="356" x2="426" y2="356" stroke="#e2e6ea" stroke-width="1"/><text x="71" y="360" font-size="10" fill="#6e7781" text-anchor="end" font-weight="400">0</text><line x1="78" y1="290.3206139231342" x2="426" y2="290.3206139231342" stroke="#e2e6ea" stroke-width="1"/><text x="71" y="294.3206139231342" font-size="10" fill="#6e7781" text-anchor="end" font-weight="400">5.0</text><line x1="78" y1="224.64122784626844" x2="426" y2="224.64122784626844" stroke="#e2e6ea" stroke-width="1"/><text x="71" y="228.64122784626844" font-size="10" fill="#6e7781" text-anchor="end" font-weight="400">10</text><line x1="78" y1="158.96184176940264" x2="426" y2="158.96184176940264" stroke="#e2e6ea" stroke-width="1"/><text x="71" y="162.96184176940264" font-size="10" fill="#6e7781" text-anchor="end" font-weight="400">15</text><line x1="78" y1="356" x2="78" y2="360" stroke="#8b949e" stroke-width="1"/><text x="78" y="373" font-size="10" fill="#6e7781" text-anchor="middle" font-weight="400">0</text><line x1="166.48713694528672" y1="356" x2="166.48713694528672" y2="360" stroke="#8b949e" stroke-width="1"/><text x="166.48713694528672" y="373" font-size="10" fill="#6e7781" text-anchor="middle" font-weight="400">20</text><line x1="254.97427389057344" y1="356" x2="254.97427389057344" y2="360" stroke="#8b949e" stroke-width="1"/><text x="254.97427389057344" y="373" font-size="10" fill="#6e7781" text-anchor="middle" font-weight="400">40</text><line x1="343.4614108358602" y1="356" x2="343.4614108358602" y2="360" stroke="#8b949e" stroke-width="1"/><text x="343.4614108358602" y="373" font-size="10" fill="#6e7781" text-anchor="middle" font-weight="400">60</text><line x1="78" y1="356" x2="426" y2="356" stroke="#8b949e" stroke-width="1"/><text x="252" y="390" font-size="10" fill="#6e7781" text-anchor="middle" font-weight="400">bytes per element</text><polyline points="205.22238114308595,184.35743318988358 226.2380761675916,194.4759994088855 259.4207525220741,197.65356810728426 297.027785723821,197.18987164158162 341.27135419646436,196.70647136005587 394.3636363636363,199.88666723389773" fill="none" stroke="#1f6f8b" stroke-width="2" stroke-linejoin="round" stroke-linecap="round"/><circle cx="205.22238114308595" cy="184.35743318988358" r="3.5" fill="#1f6f8b"/><text x="205.22238114308595" y="175.35743318988358" font-size="9" fill="#1f6f8b" text-anchor="middle" font-weight="600">0.59</text><circle cx="226.2380761675916" cy="194.4759994088855" r="3.5" fill="#1f6f8b"/><text x="226.2380761675916" y="185.4759994088855" font-size="9" fill="#1f6f8b" text-anchor="middle" font-weight="600">0.51</text><circle cx="259.4207525220741" cy="197.65356810728426" r="3.5" fill="#1f6f8b"/><text x="259.4207525220741" y="188.65356810728426" font-size="9" fill="#1f6f8b" text-anchor="middle" font-weight="600">0.41</text><circle cx="297.027785723821" cy="197.18987164158162" r="3.5" fill="#1f6f8b"/><text x="297.027785723821" y="188.18987164158162" font-size="9" fill="#1f6f8b" text-anchor="middle" font-weight="600">0.34</text><circle cx="341.27135419646436" cy="196.70647136005587" r="3.5" fill="#1f6f8b"/><text x="341.27135419646436" y="187.70647136005587" font-size="9" fill="#1f6f8b" text-anchor="middle" font-weight="600">0.29</text><circle cx="394.3636363636363" cy="199.88666723389773" r="3.5" fill="#1f6f8b"/><text x="394.3636363636363" y="190.88666723389773" font-size="9" fill="#1f6f8b" text-anchor="middle" font-weight="600">0.24</text><rect x="309.4553750214543" y="160.19565217391303" width="9" height="9" fill="#d97706"/><text x="304.9553750214543" y="155.69565217391303" font-size="10" fill="#d97706" text-anchor="end" font-weight="600">map</text><rect x="460" y="100" width="420" height="300" fill="#f7f8fa" stroke="#e2e6ea" stroke-width="1"/><text x="470" y="121" font-size="12" fill="#24292f" text-anchor="start" font-weight="600">n = 2.1M</text><text x="870" y="121" font-size="10" fill="#6e7781" text-anchor="end" font-weight="400">ns per lookup  ×  bytes per element</text><rect x="514" y="222.74878995217588" width="238.17042181941383" height="133.25121004782412" fill="#dfe3e8"/><line x1="514" y1="356" x2="862" y2="356" stroke="#e2e6ea" stroke-width="1"/><text x="507" y="360" font-size="10" fill="#6e7781" text-anchor="end" font-weight="400">0</text><line x1="514" y1="297.1494370943658" x2="862" y2="297.1494370943658" stroke="#e2e6ea" stroke-width="1"/><text x="507" y="301.1494370943658" font-size="10" fill="#6e7781" text-anchor="end" font-weight="400">20</text><line x1="514" y1="238.2988741887316" x2="862" y2="238.2988741887316" stroke="#e2e6ea" stroke-width="1"/><text x="507" y="242.2988741887316" font-size="10" fill="#6e7781" text-anchor="end" font-weight="400">40</text><line x1="514" y1="179.4483112830974" x2="862" y2="179.4483112830974" stroke="#e2e6ea" stroke-width="1"/><text x="507" y="183.4483112830974" font-size="10" fill="#6e7781" text-anchor="end" font-weight="400">60</text><line x1="514" y1="356" x2="514" y2="360" stroke="#8b949e" stroke-width="1"/><text x="514" y="373" font-size="10" fill="#6e7781" text-anchor="middle" font-weight="400">0</text><line x1="603.3228404663269" y1="356" x2="603.3228404663269" y2="360" stroke="#8b949e" stroke-width="1"/><text x="603.3228404663269" y="373" font-size="10" fill="#6e7781" text-anchor="middle" font-weight="400">20</text><line x1="692.6456809326537" y1="356" x2="692.6456809326537" y2="360" stroke="#8b949e" stroke-width="1"/><text x="692.6456809326537" y="373" font-size="10" fill="#6e7781" text-anchor="middle" font-weight="400">40</text><line x1="781.9685213989806" y1="356" x2="781.9685213989806" y2="360" stroke="#8b949e" stroke-width="1"/><text x="781.9685213989806" y="373" font-size="10" fill="#6e7781" text-anchor="middle" font-weight="400">60</text><line x1="514" y1="356" x2="862" y2="356" stroke="#8b949e" stroke-width="1"/><text x="688" y="390" font-size="10" fill="#6e7781" text-anchor="middle" font-weight="400">bytes per element</text><polyline points="640.5526003726918,244.91809125154282 662.8833104892735,247.71408149518948 694.7938952458688,249.02762605924323 732.1978346911432,237.953127131661 777.6408297783869,238.12761905067623 830.3636363636364,164.69565217391303" fill="none" stroke="#1f6f8b" stroke-width="2" stroke-linejoin="round" stroke-linecap="round"/><circle cx="640.5526003726918" cy="244.91809125154282" r="3.5" fill="#1f6f8b"/><text x="640.5526003726918" y="235.91809125154282" font-size="9" fill="#1f6f8b" text-anchor="middle" font-weight="600">0.60</text><circle cx="662.8833104892735" cy="247.71408149518948" r="3.5" fill="#1f6f8b"/><text x="662.8833104892735" y="238.71408149518948" font-size="9" fill="#1f6f8b" text-anchor="middle" font-weight="600">0.51</text><circle cx="694.7938952458688" cy="249.02762605924323" r="3.5" fill="#1f6f8b"/><text x="694.7938952458688" y="240.02762605924323" font-size="9" fill="#1f6f8b" text-anchor="middle" font-weight="600">0.42</text><circle cx="732.1978346911432" cy="237.953127131661" r="3.5" fill="#1f6f8b"/><text x="732.1978346911432" y="228.953127131661" font-size="9" fill="#1f6f8b" text-anchor="middle" font-weight="600">0.35</text><circle cx="777.6408297783869" cy="238.12761905067623" r="3.5" fill="#1f6f8b"/><text x="777.6408297783869" y="229.12761905067623" font-size="9" fill="#1f6f8b" text-anchor="middle" font-weight="600">0.29</text><circle cx="830.3636363636364" cy="164.69565217391303" r="3.5" fill="#1f6f8b"/><text x="830.3636363636364" y="155.69565217391303" font-size="9" fill="#1f6f8b" text-anchor="middle" font-weight="600">0.24</text><rect x="747.6704218194138" y="218.24878995217588" width="9" height="9" fill="#d97706"/><text x="743.1704218194138" y="213.74878995217588" font-size="10" fill="#d97706" text-anchor="end" font-weight="600">map</text><text x="24" y="458" font-size="11" fill="#6e7781" text-anchor="start" font-weight="400">Set3's occupancy is set with RehashToCapacity; the native map has no such control. Lookups at a 30% hit rate.</text><text x="24" y="473" font-size="11" fill="#6e7781" text-anchor="start" font-weight="400">Memory is retained heap per element after a full collection. Both axes are costs, so lower and further left is better.</text></svg>
