<svg xmlns="http://www.w3.org/2000/svg" width="864" height="648" viewBox="0 0 864 648" font-family="-apple-system, BlinkMacSystemFont, 'Segoe UI', Helvetica, Arial, sans-serif"><rect x="0" y="0" width="864" height="648" fill="#ffffff"/><text x="24" y="34" font-size="17" fill="#24292f" text-anchor="start" font-weight="600">Retained memory per element — key type string</text><text x="24" y="54" font-size="12" fill="#6e7781" text-anchor="start" font-weight="400">go1.27.1 linux/amd64, 24 CPUs · measured 2026-09-11 · rtcompare, 95% intervals</text><rect x="24" y="70" width="11" height="11" fill="#1f6f8b"/><text x="41" y="79" font-size="12" fill="#24292f" text-anchor="start" font-weight="400">Set3</text><rect x="89.4" y="70" width="11" height="11" fill="#d97706"/><text x="106.4" y="79" font-size="12" fill="#24292f" text-anchor="start" font-weight="400">map[T]struct{}</text><rect x="24" y="96" width="400" height="216" fill="#f7f8fa" stroke="#e2e6ea" stroke-width="1"/><text x="34" y="116" font-size="12" fill="#24292f" text-anchor="start" font-weight="600">presized</text><text x="414" y="116" font-size="10" fill="#6e7781" text-anchor="end" font-weight="400">bytes per element</text><line x1="76" y1="282" x2="412" y2="282" stroke="#e2e6ea" stroke-width="1"/><text x="69" y="286" font-size="10" fill="#6e7781" text-anchor="end" font-weight="400">0</text><line x1="76" y1="233.6342531310457" x2="412" y2="233.6342531310457" stroke="#e2e6ea" stroke-width="1"/><text x="69" y="237.6342531310457" font-size="10" fill="#6e7781" text-anchor="end" font-weight="400">20</text><line x1="76" y1="185.26850626209142" x2="412" y2="185.26850626209142" stroke="#e2e6ea" stroke-width="1"/><text x="69" y="189.26850626209142" font-size="10" fill="#6e7781" text-anchor="end" font-weight="400">40</text><line x1="76" y1="136.90275939313713" x2="412" y2="136.90275939313713" stroke="#e2e6ea" stroke-width="1"/><text x="69" y="140.90275939313713" font-size="10" fill="#6e7781" text-anchor="end" font-weight="400">60</text><line x1="76" y1="282" x2="76" y2="286" stroke="#8b949e" stroke-width="1"/><text x="76" y="299" font-size="10" fill="#6e7781" text-anchor="middle" font-weight="400">1k</text><line x1="198.84484147517213" y1="282" x2="198.84484147517213" y2="286" stroke="#8b949e" stroke-width="1"/><text x="198.84484147517213" y="299" font-size="10" fill="#6e7781" text-anchor="middle" font-weight="400">16k</text><line x1="320.6477892036453" y1="282" x2="320.6477892036453" y2="286" stroke="#8b949e" stroke-width="1"/><text x="320.6477892036453" y="299" font-size="10" fill="#6e7781" text-anchor="middle" font-weight="400">262k</text><line x1="412" y1="282" x2="412" y2="286" stroke="#8b949e" stroke-width="1"/><text x="412" y="299" font-size="10" fill="#6e7781" text-anchor="middle" font-weight="400">2.1M</text><line x1="76" y1="282" x2="412" y2="282" stroke="#8b949e" stroke-width="1"/><polyline points="76,229.1846044191019 198.84484147517213,230.59954434375317 320.6477892036453,231.29069086651052 412,231.38597138784237" fill="none" stroke="#1f6f8b" stroke-width="2" stroke-linejoin="round" stroke-linecap="round"/><circle cx="76" cy="229.1846044191019" r="3" fill="#1f6f8b"/><circle cx="198.84484147517213" cy="230.59954434375317" r="3" fill="#1f6f8b"/><circle cx="320.6477892036453" cy="231.29069086651052" r="3" fill="#1f6f8b"/><circle cx="412" cy="231.38597138784237" r="3" fill="#1f6f8b"/><polyline points="76,149.82608695652172 198.84484147517213,153.0300758578556 320.6477892036453,153.02983402912125 412,153.03733071988594" fill="none" stroke="#d97706" stroke-width="2" stroke-linejoin="round" stroke-linecap="round"/><circle cx="76" cy="149.82608695652172" r="3" fill="#d97706"/><circle cx="198.84484147517213" cy="153.0300758578556" r="3" fill="#d97706"/><circle cx="320.6477892036453" cy="153.02983402912125" r="3" fill="#d97706"/><circle cx="412" cy="153.03733071988594" r="3" fill="#d97706"/><text x="414" y="130" font-size="11" fill="#2f7d32" text-anchor="end" font-weight="600">Set3 uses 39% of the map's bytes</text><rect x="440" y="96" width="400" height="216" fill="#f7f8fa" stroke="#e2e6ea" stroke-width="1"/><text x="450" y="116" font-size="12" fill="#24292f" text-anchor="start" font-weight="600">grown</text><text x="830" y="116" font-size="10" fill="#6e7781" text-anchor="end" font-weight="400">bytes per element</text><line x1="492" y1="282" x2="828" y2="282" stroke="#e2e6ea" stroke-width="1"/><text x="485" y="286" font-size="10" fill="#6e7781" text-anchor="end" font-weight="400">0</text><line x1="492" y1="233.6342531310457" x2="828" y2="233.6342531310457" stroke="#e2e6ea" stroke-width="1"/><text x="485" y="237.6342531310457" font-size="10" fill="#6e7781" text-anchor="end" font-weight="400">20</text><line x1="492" y1="185.26850626209142" x2="828" y2="185.26850626209142" stroke="#e2e6ea" stroke-width="1"/><text x="485" y="189.26850626209142" font-size="10" fill="#6e7781" text-anchor="end" font-weight="400">40</text><line x1="492" y1="136.90275939313713" x2="828" y2="136.90275939313713" stroke="#e2e6ea" stroke-width="1"/><text x="485" y="140.90275939313713" font-size="10" fill="#6e7781" text-anchor="end" font-weight="400">60</text><line x1="492" y1="282" x2="492" y2="286" stroke="#8b949e" stroke-width="1"/><text x="492" y="299" font-size="10" fill="#6e7781" text-anchor="middle" font-weight="400">1k</text><line x1="614.8448414751722" y1="282" x2="614.8448414751722" y2="286" stroke="#8b949e" stroke-width="1"/><text x="614.8448414751722" y="299" font-size="10" fill="#6e7781" text-anchor="middle" font-weight="400">16k</text><line x1="736.6477892036453" y1="282" x2="736.6477892036453" y2="286" stroke="#8b949e" stroke-width="1"/><text x="736.6477892036453" y="299" font-size="10" fill="#6e7781" text-anchor="middle" font-weight="400">262k</text><line x1="828" y1="282" x2="828" y2="286" stroke="#8b949e" stroke-width="1"/><text x="828" y="299" font-size="10" fill="#6e7781" text-anchor="middle" font-weight="400">2.1M</text><line x1="492" y1="282" x2="828" y2="282" stroke="#8b949e" stroke-width="1"/><polyline points="492,225.77965583952755 614.8448414751722,222.74011047754811 736.6477892036453,218.896968231341 828,222.1756822115874" fill="none" stroke="#1f6f8b" stroke-width="2" stroke-linejoin="round" stroke-linecap="round"/><circle cx="492" cy="225.77965583952755" r="3" fill="#1f6f8b"/><circle cx="614.8448414751722" cy="222.74011047754811" r="3" fill="#1f6f8b"/><circle cx="736.6477892036453" cy="218.896968231341" r="3" fill="#1f6f8b"/><circle cx="828" cy="222.1756822115874" r="3" fill="#1f6f8b"/><polyline points="492,149.82608695652172 614.8448414751722,153.0300758578556 736.6477892036453,153.02983402912125 828,153.03733071988594" fill="none" stroke="#d97706" stroke-width="2" stroke-linejoin="round" stroke-linecap="round"/><circle cx="492" cy="149.82608695652172" r="3" fill="#d97706"/><circle cx="614.8448414751722" cy="153.0300758578556" r="3" fill="#d97706"/><circle cx="736.6477892036453" cy="153.02983402912125" r="3" fill="#d97706"/><circle cx="828" cy="153.03733071988594" r="3" fill="#d97706"/><text x="830" y="130" font-size="11" fill="#2f7d32" text-anchor="end" font-weight="600">Set3 uses 46% of the map's bytes</text><rect x="24" y="350" width="400" height="216" fill="#f7f8fa" stroke="#e2e6ea" stroke-width="1"/><text x="34" y="370" font-size="12" fill="#24292f" text-anchor="start" font-weight="600">half-removed</text><text x="414" y="370" font-size="10" fill="#6e7781" text-anchor="end" font-weight="400">bytes per element</text><line x1="76" y1="536" x2="412" y2="536" stroke="#e2e6ea" stroke-width="1"/><text x="69" y="540" font-size="10" fill="#6e7781" text-anchor="end" font-weight="400">0</text><line x1="76" y1="475.54281641380715" x2="412" y2="475.54281641380715" stroke="#e2e6ea" stroke-width="1"/><text x="69" y="479.54281641380715" font-size="10" fill="#6e7781" text-anchor="end" font-weight="400">50</text><line x1="76" y1="415.0856328276143" x2="412" y2="415.0856328276143" stroke="#e2e6ea" stroke-width="1"/><text x="69" y="419.0856328276143" font-size="10" fill="#6e7781" text-anchor="end" font-weight="400">100</text><line x1="76" y1="536" x2="76" y2="540" stroke="#8b949e" stroke-width="1"/><text x="76" y="553" font-size="10" fill="#6e7781" text-anchor="middle" font-weight="400">1k</text><line x1="198.84484147517213" y1="536" x2="198.84484147517213" y2="540" stroke="#8b949e" stroke-width="1"/><text x="198.84484147517213" y="553" font-size="10" fill="#6e7781" text-anchor="middle" font-weight="400">16k</text><line x1="320.6477892036453" y1="536" x2="320.6477892036453" y2="540" stroke="#8b949e" stroke-width="1"/><text x="320.6477892036453" y="553" font-size="10" fill="#6e7781" text-anchor="middle" font-weight="400">262k</text><line x1="412" y1="536" x2="412" y2="540" stroke="#8b949e" stroke-width="1"/><text x="412" y="553" font-size="10" fill="#6e7781" text-anchor="middle" font-weight="400">2.1M</text><line x1="76" y1="536" x2="412" y2="536" stroke="#8b949e" stroke-width="1"/><polyline points="76,483.1846044191019 198.84484147517213,484.59954434375317 320.6477892036453,485.2908117808777 412,485.3858504734752" fill="none" stroke="#1f6f8b" stroke-width="2" stroke-linejoin="round" stroke-linecap="round"/><circle cx="76" cy="483.1846044191019" r="3" fill="#1f6f8b"/><circle cx="198.84484147517213" cy="484.59954434375317" r="3" fill="#1f6f8b"/><circle cx="320.6477892036453" cy="485.2908117808777" r="3" fill="#1f6f8b"/><circle cx="412" cy="485.3858504734752" r="3" fill="#1f6f8b"/><polyline points="76,403.82608695652175 198.84484147517213,407.0301967722228 320.6477892036453,407.0297131147541 412,407.0372098055187" fill="none" stroke="#d97706" stroke-width="2" stroke-linejoin="round" stroke-linecap="round"/><circle cx="76" cy="403.82608695652175" r="3" fill="#d97706"/><circle cx="198.84484147517213" cy="407.0301967722228" r="3" fill="#d97706"/><circle cx="320.6477892036453" cy="407.0297131147541" r="3" fill="#d97706"/><circle cx="412" cy="407.0372098055187" r="3" fill="#d97706"/><text x="414" y="384" font-size="11" fill="#2f7d32" text-anchor="end" font-weight="600">Set3 uses 39% of the map's bytes</text><rect x="440" y="350" width="400" height="216" fill="#f7f8fa" stroke="#e2e6ea" stroke-width="1"/><text x="450" y="370" font-size="12" fill="#24292f" text-anchor="start" font-weight="600">window-steady</text><text x="830" y="370" font-size="10" fill="#6e7781" text-anchor="end" font-weight="400">bytes per element</text><line x1="492" y1="536" x2="828" y2="536" stroke="#e2e6ea" stroke-width="1"/><text x="485" y="540" font-size="10" fill="#6e7781" text-anchor="end" font-weight="400">0</text><line x1="492" y1="487.63425313104574" x2="828" y2="487.63425313104574" stroke="#e2e6ea" stroke-width="1"/><text x="485" y="491.63425313104574" font-size="10" fill="#6e7781" text-anchor="end" font-weight="400">20</text><line x1="492" y1="439.2685062620914" x2="828" y2="439.2685062620914" stroke="#e2e6ea" stroke-width="1"/><text x="485" y="443.2685062620914" font-size="10" fill="#6e7781" text-anchor="end" font-weight="400">40</text><line x1="492" y1="390.9027593931371" x2="828" y2="390.9027593931371" stroke="#e2e6ea" stroke-width="1"/><text x="485" y="394.9027593931371" font-size="10" fill="#6e7781" text-anchor="end" font-weight="400">60</text><line x1="492" y1="536" x2="492" y2="540" stroke="#8b949e" stroke-width="1"/><text x="492" y="553" font-size="10" fill="#6e7781" text-anchor="middle" font-weight="400">1k</text><line x1="614.8448414751722" y1="536" x2="614.8448414751722" y2="540" stroke="#8b949e" stroke-width="1"/><text x="614.8448414751722" y="553" font-size="10" fill="#6e7781" text-anchor="middle" font-weight="400">16k</text><line x1="736.6477892036453" y1="536" x2="736.6477892036453" y2="540" stroke="#8b949e" stroke-width="1"/><text x="736.6477892036453" y="553" font-size="10" fill="#6e7781" text-anchor="middle" font-weight="400">262k</text><line x1="828" y1="536" x2="828" y2="540" stroke="#8b949e" stroke-width="1"/><text x="828" y="553" font-size="10" fill="#6e7781" text-anchor="middle" font-weight="400">2.1M</text><line x1="492" y1="536" x2="828" y2="536" stroke="#8b949e" stroke-width="1"/><polyline points="492,451.6114448630486 614.8448414751722,458.6029554016902 736.6477892036453,459.97436615415944 828,460.08826748803585" fill="none" stroke="#1f6f8b" stroke-width="2" stroke-linejoin="round" stroke-linecap="round"/><circle cx="492" cy="451.6114448630486" r="3" fill="#1f6f8b"/><circle cx="614.8448414751722" cy="458.6029554016902" r="3" fill="#1f6f8b"/><circle cx="736.6477892036453" cy="459.97436615415944" r="3" fill="#1f6f8b"/><circle cx="828" cy="460.08826748803585" r="3" fill="#1f6f8b"/><polyline points="492,403.82608695652175 614.8448414751722,407.0300758578556 736.6477892036453,407.0298340291213 828,407.037330719886" fill="none" stroke="#d97706" stroke-width="2" stroke-linejoin="round" stroke-linecap="round"/><circle cx="492" cy="403.82608695652175" r="3" fill="#d97706"/><circle cx="614.8448414751722" cy="407.0300758578556" r="3" fill="#d97706"/><circle cx="736.6477892036453" cy="407.0298340291213" r="3" fill="#d97706"/><circle cx="828" cy="407.037330719886" r="3" fill="#d97706"/><text x="830" y="384" font-size="11" fill="#2f7d32" text-anchor="end" font-weight="600">Set3 uses 59% of the map's bytes</text><text x="24" y="622" font-size="11" fill="#6e7781" text-anchor="start" font-weight="400">Heap still live after a full collection, with the container reachable and the key material held constant. The x axis is logarithmic.</text></svg>
